# xmcd
#
# Track frame offsets:
#	150
#	20384
#	56752
#	78235
#	105095
#	123904
#	140008
#	157783
#	172675
#	196008
#	211835
#	232963
#	255833
#	280089
#	298809
#	314910
#	329317
#	336295
#
# Disc length: 4765
#
# Revision: 2
# Processed by: cddbd v1.5.1PL0 Copyright (c) Steve Scherf et al.
# Submitted via: CDex 1.51
# Normalized: r1:TDELIM( - )
#
DISCID=ed129b12
DTITLE=Various Artist - Rendez-Vous On The Jazz Boulevard vol. 3 2/2
DYEAR=2003
DGENRE=Jazz
TTITLE0=Hedvig Hanson - Love Is Stronger Than Pride
TTITLE1=Lyambiko - Moondance
TTITLE2=Josefine Cronholm - Don't Let Me Wait
TTITLE3=Carmen Cuesta - Shape Of My Heart
TTITLE4=Stacey Kent - What The World Needs Now Is Love
TTITLE5=Rebecca Pidgeon - Spanish Harlem
TTITLE6=Ive Mendes - If You Leave Me Now
TTITLE7=Veronica Mortensen - If
TTITLE8=Sofie Hellborg - Feel What's Real
TTITLE9=Viktoria Tolstoy - Upside Out (edit)
TTITLE10=Meja - Too Late
TTITLE11=Eva Cassidy - What A Wonderful World
TTITLE12=Siri Gjaere Et Tord Gustavsen - One Day
TTITLE13=Eliane Elias - Movin' Me On
TTITLE14=Monica Vasconcelos Et Nois - Thinking About Your Body
TTITLE15=Christy Baron - Got To Get You Into My Life
TTITLE16=Jackqui Dankworth - Hi Lily Hi Lo
TTITLE17=Rita di Ghent - Holiday Groove (medley)
EXTD=YEAR: 2003
EXTT0=
EXTT1=
EXTT2=
EXTT3=
EXTT4=
EXTT5=
EXTT6=
EXTT7=
EXTT8=
EXTT9=
EXTT10=
EXTT11=
EXTT12=
EXTT13=
EXTT14=
EXTT15=
EXTT16=
EXTT17=
PLAYORDER=
